<svg xmlns="http://www.w3.org/2000/svg" viewBox="0 0 960 600">
  <rect width="960" height="600" fill="#ecfeff"/>
  <rect x="80" y="72" width="800" height="456" rx="8" fill="#ffffff" stroke="#bae6fd"/>
  <rect x="80" y="72" width="190" height="456" rx="8" fill="#0f172a"/>
  <rect x="118" y="124" width="106" height="12" rx="6" fill="#2dd4bf"/>
  <rect x="118" y="174" width="98" height="10" rx="5" fill="#64748b"/>
  <rect x="118" y="210" width="126" height="10" rx="5" fill="#64748b"/>
  <rect x="118" y="246" width="84" height="10" rx="5" fill="#64748b"/>
  <rect x="315" y="124" width="210" height="112" rx="8" fill="#ccfbf1"/>
  <rect x="555" y="124" width="258" height="112" rx="8" fill="#ffedd5"/>
  <rect x="315" y="280" width="498" height="34" rx="8" fill="#f1f5f9"/>
  <rect x="315" y="338" width="498" height="34" rx="8" fill="#f1f5f9"/>
  <rect x="315" y="396" width="498" height="34" rx="8" fill="#f1f5f9"/>
  <circle cx="771" cy="180" r="32" fill="#e11d48"/>
</svg>
